<?xml version="1.0" ?><svg id="Layer_2" style="enable-background:new 0 0 32 32;" version="1.1" viewBox="0 0 32 32" xml:space="preserve" xmlns="http://www.w3.org/2000/svg" xmlns:xlink="http://www.w3.org/1999/xlink"><g><path d="M15.99976,31.5c7.69513,0,13.95514-6.26001,13.95514-13.95465c0-5.31726-3.09076-10.24329-7.87299-12.54883   c-0.46545-0.22559-0.99243-0.25635-1.47961-0.08466c-0.49005,0.17078-0.88361,0.52173-1.10785,0.98865   c-0.46356,0.9621-0.05768,2.12195,0.90442,2.586c3.45117,1.66406,5.68103,5.21979,5.68103,9.05884   c0,5.55804-4.52209,10.07965-10.08014,10.07965c-5.55798,0-10.07965-4.52161-10.07965-10.07965   c0-3.83905,2.23035-7.39478,5.68152-9.05835c0.9621-0.46356,1.36798-1.6239,0.90442-2.58698   c-0.22516-0.46735-0.61969-0.81836-1.10974-0.98865c-0.48816-0.17072-1.01508-0.13953-1.47675,0.08514   C5.13586,7.30157,2.0451,12.22766,2.0451,17.54535C2.0451,25.23999,8.3056,31.5,15.99976,31.5z"/><path d="M15.99976,11.75696c1.06812,0,1.9375-0.8689,1.9375-1.9375V2.4375c0-1.06854-0.86938-1.9375-1.9375-1.9375   c-1.06805,0-1.9375,0.86896-1.9375,1.9375v7.38196C14.06226,10.88806,14.9317,11.75696,15.99976,11.75696z"/></g></svg>